<mxfile host="app.diagrams.net" modified="2023-12-05T04:16:52.573Z" agent="Mozilla/5.0 (Windows NT 10.0; Win64; x64) AppleWebKit/537.36 (KHTML, like Gecko) Chrome/119.0.0.0 Safari/537.36" version="21.7.5" etag="BtWkPHpmRUoDlFEwoMfj" type="github">
  <diagram name="Trang-1" id="YJvIpHZuuQ5NtLvKn1Vc">
    <mxGraphModel>
      <root>
        <mxCell id="0" />
        <mxCell id="1" parent="0" />
      </root>
    </mxGraphModel>
  </diagram>
</mxfile>
